<?xml version="1.0" encoding="UTF-8"?><svg xmlns="http://www.w3.org/2000/svg" viewBox="0 0 1000 1000" x="0px" y="0px" width="1000px" height="1000px" xmlns:xlink="http://www.w3.org/1999/xlink" version="1.1"><g style="isolation:isolate"><g id="Layer_1" data-name="Layer 1"><line x1="153.612" y1="532.024" x2="321.175" y2="532.024" fill="#cb0000" stroke="#cb0000" stroke-linecap="round" stroke-linejoin="round" stroke-width="8"/><rect x="227.841" y="513.059" width="18.83" height="39.322" rx="4.306" stroke-width="8" stroke="#cb0000" stroke-linecap="round" stroke-linejoin="round" fill="#cb0000"/><line x1="340.196" y1="708.55" x2="350.803" y2="737.694" fill="#cb0000" stroke="#cb0000" stroke-linecap="round" stroke-linejoin="round" stroke-width="8"/><polygon points="329.696 640.84 310.961 647.659 230.646 426.997 259.79 416.389 312.204 560.394 329.696 640.84" fill="#cb0000" stroke="#cb0000" stroke-linecap="round" stroke-linejoin="round" stroke-width="8"/><rect x="326.885" y="672.516" width="13.292" height="35.445" transform="translate(-215.961 155.701) rotate(-20)" stroke-width="8" stroke="#cb0000" stroke-linecap="round" stroke-linejoin="round" fill="#cb0000"/><circle cx="326.175" cy="657.073" r="19.938" fill="#cb0000" stroke="#cb0000" stroke-linecap="round" stroke-linejoin="round" stroke-width="8"/><polygon points="145.148 640.84 163.884 647.659 244.198 426.997 215.054 416.389 162.641 560.394 145.148 640.84" fill="#cb0000" stroke="#cb0000" stroke-linecap="round" stroke-linejoin="round" stroke-width="8"/><rect x="134.667" y="672.516" width="13.292" height="35.445" transform="translate(38.029 1387.183) rotate(-160)" stroke-width="8" stroke="#cb0000" stroke-linecap="round" stroke-linejoin="round" fill="#cb0000"/><line x1="134.649" y1="708.55" x2="124.041" y2="737.694" fill="#cb0000" stroke="#cb0000" stroke-linecap="round" stroke-linejoin="round" stroke-width="8"/><circle cx="148.67" cy="657.073" r="19.938" fill="#cb0000" stroke="#cb0000" stroke-linecap="round" stroke-linejoin="round" stroke-width="8"/><path d="M252.911,478.168H221.933a11.743,11.743,0,0,1-11.05-8.762c-5.518-23.154-9.318-46.7-8.9-69.876.163-5.917,5.861-11.083,11.758-11.083h47.368c5.9,0,11.6,5.165,11.758,11.083.415,23.179-3.385,46.722-8.9,69.876A11.742,11.742,0,0,1,252.911,478.168Z" fill="#cb0000" stroke="#cb0000" stroke-linecap="round" stroke-linejoin="round" stroke-width="8"/><rect x="219.349" y="294.296" width="35.445" height="78.644" stroke-width="8" stroke="#cb0000" stroke-linecap="round" stroke-linejoin="round" fill="#cb0000"/><rect x="227.656" y="372.94" width="18.83" height="15.507" stroke-width="8" stroke="#cb0000" stroke-linecap="round" stroke-linejoin="round" fill="#cb0000"/><path d="M596.87,403.418h-186.3a32.366,32.366,0,0,0-31.224,23.4,97.139,97.139,0,0,0,0,53.107,32.366,32.366,0,0,0,31.224,23.4h186.3a15.441,15.441,0,0,0,15.447-14.355,526.652,526.652,0,0,0,0-71.2A15.441,15.441,0,0,0,596.87,403.418Z" fill="#cb0000" stroke="#cb0000" stroke-linecap="round" stroke-linejoin="round" stroke-width="8"/><path d="M478.957,484.807a167.769,167.769,0,0,1,0-62.872H726.343c0,14.427-3.225,37.872-11.811,54.316a15.993,15.993,0,0,1-14.19,8.556Z" fill="#cb0000" stroke="#cb0000" stroke-linecap="round" stroke-linejoin="round" stroke-width="8"/><rect x="613.478" y="476.688" width="18.734" height="17.888" transform="translate(1108.476 -137.214) rotate(90)" stroke-width="8" stroke="#cb0000" stroke-linecap="round" stroke-linejoin="round" fill="#cb0000"/><rect x="613.478" y="417.448" width="18.734" height="17.888" transform="translate(1049.237 -196.453) rotate(90)" stroke-width="8" stroke="#cb0000" stroke-linecap="round" stroke-linejoin="round" fill="#cb0000"/><path d="M311.175,531.024H143.612a4,4,0,1,1,0-8H311.175a4,4,0,1,1,0,8Z" fill="#340600"/><rect x="217.841" y="508.059" width="18.83" height="39.322" rx="4.306" fill="#bfbfbf"/><path d="M219.742,508.793a4.3,4.3,0,0,0-1.9,3.572v30.71a4.3,4.3,0,0,0,1.9,3.572c3.241-2.892,5.55-10.264,5.55-18.927S222.983,511.685,219.742,508.793Z" fill="#fff"/><path d="M232.365,550.381H222.146a7.313,7.313,0,0,1-7.3-7.306v-30.71a7.313,7.313,0,0,1,7.3-7.306h10.219a7.314,7.314,0,0,1,7.306,7.306v30.71A7.314,7.314,0,0,1,232.365,550.381Zm-10.219-39.322a1.307,1.307,0,0,0-1.3,1.306v30.71a1.307,1.307,0,0,0,1.3,1.306h10.219a1.308,1.308,0,0,0,1.306-1.306v-30.71a1.308,1.308,0,0,0-1.306-1.306Z" fill="#340600"/><polygon points="319.696 635.84 300.961 642.659 220.646 421.997 249.79 411.389 302.204 555.394 319.696 635.84" fill="#fff"/><polygon points="302.204 555.394 249.79 411.389 241.843 414.282 293.204 555.394 310.696 635.84 299.908 639.767 300.961 642.659 319.696 635.84 302.204 555.394" fill="#bfbfbf"/><path d="M250.79,410.389,221.646,421l22.623,62.155a22.7,22.7,0,0,0,21.392-17.195c.734-3.08,1.415-6.09,2.058-9.055Z" fill="#bfbfbf"/><path d="M340.8,736.7a4,4,0,0,1-3.76-2.633l-10.607-29.144a4,4,0,0,1,7.518-2.736l10.607,29.144A4,4,0,0,1,340.8,736.7Z" fill="#340600"/><rect x="316.885" y="667.516" width="13.292" height="35.445" transform="translate(-214.854 151.979) rotate(-20)" fill="#bfbfbf"/><path d="M300.961,646.659a4,4,0,0,1-3.759-2.632L216.887,423.365a4,4,0,0,1,2.391-5.127l29.144-10.608a4,4,0,0,1,5.127,2.391l52.413,144a3.9,3.9,0,0,1,.15.519l17.493,80.446a4,4,0,0,1-2.541,4.609l-18.735,6.819A4,4,0,0,1,300.961,646.659ZM225.773,424.387l77.579,213.145,11.693-4.256-16.692-76.768L247.4,416.516Z" fill="#340600"/><path d="M323.348,708.167a4,4,0,0,1-3.76-2.633l-12.123-33.307a4,4,0,0,1,2.391-5.127l12.491-4.546a4,4,0,0,1,5.127,2.39L339.6,698.252a4,4,0,0,1-2.39,5.127l-12.491,4.546A4,4,0,0,1,323.348,708.167Zm-7-34.918,9.387,25.79,4.972-1.81-9.386-25.79Z" fill="#340600"/><circle cx="316.175" cy="652.073" r="19.938" fill="#fff"/><path d="M321.328,643.867a19.938,19.938,0,0,0-11.917,25.555c.2.557.439,1.092.685,1.62a19.914,19.914,0,0,0,24.814-25.788c-.2-.557-.438-1.093-.684-1.62A19.822,19.822,0,0,0,321.328,643.867Z" fill="#bfbfbf"/><path d="M316.16,676.023a24,24,0,1,1,8.2-1.456A23.853,23.853,0,0,1,316.16,676.023Zm.025-39.9a15.966,15.966,0,1,0,6.725,1.5A15.929,15.929,0,0,0,316.185,636.127Z" fill="#340600"/><polygon points="135.148 635.84 153.884 642.659 234.198 421.997 205.054 411.389 152.641 555.394 135.148 635.84" fill="#fff"/><polygon points="135.148 635.84 153.884 642.659 234.198 421.997 205.054 411.389 152.641 555.394 135.148 635.84" fill="#fff"/><polygon points="205.054 411.389 204.001 414.282 225.198 421.997 145.936 639.767 153.884 642.659 234.198 421.997 205.054 411.389" fill="#bfbfbf"/><path d="M207.054,410.389,190.125,456.9c.65,2.992,1.337,6.031,2.078,9.14a22.675,22.675,0,0,0,21.373,17.112L236.2,421Z" fill="#bfbfbf"/><path d="M153.884,646.659a4,4,0,0,1-1.368-.241L133.78,639.6a4,4,0,0,1-2.541-4.609l17.493-80.446a3.9,3.9,0,0,1,.15-.519l52.413-144a4,4,0,0,1,5.127-2.391l29.144,10.608a4,4,0,0,1,2.391,5.127L157.643,644.027a4,4,0,0,1-3.759,2.632ZM139.8,633.276l11.694,4.256,77.578-213.145-21.626-7.871L156.492,556.508Z" fill="#340600"/><rect x="124.667" y="667.516" width="13.292" height="35.445" transform="translate(20.342 1374.065) rotate(-160)" fill="#bfbfbf"/><path d="M131.5,708.167a4,4,0,0,1-1.368-.242l-12.49-4.546a4,4,0,0,1-2.391-5.127l12.123-33.308a4,4,0,0,1,5.127-2.39l12.49,4.546a4,4,0,0,1,2.391,5.127l-12.123,33.307A4,4,0,0,1,131.5,708.167Zm-7.363-10.938,4.972,1.81,9.387-25.79-4.973-1.81Z" fill="#340600"/><path d="M114.041,736.7a4,4,0,0,1-3.759-5.369l10.608-29.144a4,4,0,1,1,7.518,2.736L117.8,734.062A4,4,0,0,1,114.041,736.7Z" fill="#340600"/><circle cx="138.67" cy="652.073" r="19.938" fill="#fff"/><circle cx="138.67" cy="652.073" r="19.938" fill="#fff"/><path d="M157.405,658.892a19.871,19.871,0,0,0-.667-15.248,19.92,19.92,0,0,0-24.164,27.387A19.922,19.922,0,0,0,157.405,658.892Z" fill="#bfbfbf"/><path d="M138.684,676.023a23.98,23.98,0,1,1,10.1-2.254A23.94,23.94,0,0,1,138.684,676.023Zm-.025-39.9a15.98,15.98,0,1,0,5.462.97A15.887,15.887,0,0,0,138.659,636.127Z" fill="#340600"/><path d="M242.911,473.168H211.933a11.743,11.743,0,0,1-11.05-8.762c-5.518-23.154-9.318-46.7-8.9-69.876.163-5.917,5.861-11.083,11.758-11.083h47.368c5.9,0,11.6,5.165,11.758,11.083.415,23.179-3.385,46.722-8.9,69.876A11.742,11.742,0,0,1,242.911,473.168Z" fill="#bfbfbf"/><path d="M200.5,464.406c-5.518-23.154-9.317-46.7-8.9-69.876.162-5.918,5.86-11.083,11.757-11.083h33.8a84.739,84.739,0,0,1-.664,39.1c-5.1,20.169-11.695,47.767-32.288,47.767A11.529,11.529,0,0,1,200.5,464.406Z" fill="#fff"/><path d="M242.911,477.167H211.933A15.8,15.8,0,0,1,197,465.364c-6.531-27.4-9.4-49.922-9.019-70.906.22-8.014,7.582-15.011,15.756-15.011h47.369c8.174,0,15.537,7,15.756,14.973.377,21.022-2.487,43.543-9.01,70.913A15.81,15.81,0,0,1,242.911,477.167Zm-39.173-89.72c-3.816,0-7.659,3.563-7.759,7.193-.362,20.255,2.432,42.141,8.795,68.839a7.707,7.707,0,0,0,7.159,5.688h30.978a7.712,7.712,0,0,0,7.166-5.718c6.356-26.669,9.151-48.555,8.787-68.847-.1-3.592-3.942-7.155-7.757-7.155Z" fill="#340600"/><rect x="209.349" y="289.296" width="35.445" height="78.644" fill="#bfbfbf"/><rect x="209.349" y="289.296" width="10" height="78.644" fill="#bfbfbf" style="mix-blend-mode:screen"/><rect x="232.333" y="289.296" width="12.46" height="78.644" fill="#bfbfbf" style="mix-blend-mode:multiply"/><path d="M244.794,371.94H209.349a4,4,0,0,1-4-4V289.3a4,4,0,0,1,4-4h35.445a4,4,0,0,1,4,4V367.94A4,4,0,0,1,244.794,371.94Zm-31.445-8h27.445V293.3H213.349Z" fill="#340600"/><rect x="217.656" y="367.94" width="18.83" height="15.507" fill="#606060"/><path d="M236.486,387.447h-18.83a4,4,0,0,1-4-4V367.94a4,4,0,0,1,4-4h18.83a4,4,0,0,1,4,4v15.507A4,4,0,0,1,236.486,387.447Zm-14.83-8h10.83V371.94h-10.83Z" fill="#340600"/><path d="M220.646,351.74a3,3,0,0,1-3-3V303.326a3,3,0,0,1,6,0V348.74A3,3,0,0,1,220.646,351.74Z" fill="#340600"/><circle cx="228.894" cy="428.05" r="10.5" fill="#606060"/><path d="M228.9,442.55a14.5,14.5,0,1,1,14.5-14.5A14.516,14.516,0,0,1,228.9,442.55Zm0-21a6.5,6.5,0,1,0,6.5,6.5A6.508,6.508,0,0,0,228.9,421.55Z" fill="#340600"/><path d="M591.87,391.418h-186.3a32.366,32.366,0,0,0-31.224,23.4,97.139,97.139,0,0,0,0,53.107,32.366,32.366,0,0,0,31.224,23.4h186.3a15.441,15.441,0,0,0,15.447-14.355,526.652,526.652,0,0,0,0-71.2A15.441,15.441,0,0,0,591.87,391.418Z" fill="#1d4928"/><path d="M591.87,495.324h-186.3A36.471,36.471,0,0,1,370.5,469.012a101.6,101.6,0,0,1,0-55.283,36.472,36.472,0,0,1,35.073-26.311h186.3A19.5,19.5,0,0,1,611.308,405.5a532.706,532.706,0,0,1,0,71.739A19.5,19.5,0,0,1,591.87,495.324Zm-186.3-99.906A28.443,28.443,0,0,0,378.2,415.905a93.594,93.594,0,0,0,0,50.931,28.444,28.444,0,0,0,27.375,20.488h186.3A11.473,11.473,0,0,0,603.325,476.7a524.239,524.239,0,0,0,0-70.657,11.473,11.473,0,0,0-11.455-10.624Z" fill="#340600"/><path d="M591.87,495.324h-186.3A36.471,36.471,0,0,1,370.5,469.012a101.6,101.6,0,0,1,0-55.283,36.472,36.472,0,0,1,35.073-26.311h186.3A19.5,19.5,0,0,1,611.308,405.5a532.706,532.706,0,0,1,0,71.739A19.5,19.5,0,0,1,591.87,495.324Zm-186.3-99.906A28.443,28.443,0,0,0,378.2,415.905a93.594,93.594,0,0,0,0,50.931,28.444,28.444,0,0,0,27.375,20.488h186.3A11.473,11.473,0,0,0,603.325,476.7a524.239,524.239,0,0,0,0-70.657,11.473,11.473,0,0,0-11.455-10.624Z" fill="#340600"/><path d="M473.957,472.807a167.769,167.769,0,0,1,0-62.872H721.343c0,14.427-3.225,37.872-11.811,54.316a15.993,15.993,0,0,1-14.19,8.556Z" fill="#c4c4c4"/><path d="M714.9,409.935c-.96,14.136-4.384,32.6-11.514,46.253a15.991,15.991,0,0,1-14.19,8.556H472.624q.568,4.043,1.333,8.063H695.342a15.993,15.993,0,0,0,14.19-8.556c8.586-16.444,11.811-39.889,11.811-54.316Z" fill="#c4c4c4" opacity="0.77" style="mix-blend-mode:multiply"/><path d="M695.342,476.807H473.957a4,4,0,0,1-3.93-3.25,171.089,171.089,0,0,1,0-64.372,4,4,0,0,1,3.93-3.25H721.343a4,4,0,0,1,4,4c0,16.265-3.792,39.94-12.265,56.168A19.927,19.927,0,0,1,695.342,476.807Zm-218.043-8H695.342a11.95,11.95,0,0,0,10.644-6.407c7.185-13.76,10.735-33.5,11.282-48.465H477.3A162.937,162.937,0,0,0,477.3,468.807Z" fill="#340600"/><path d="M720.542,423.694a131.47,131.47,0,0,0,.8-13.759H473.957q-1.306,6.844-2.026,13.759Z" fill="#fff"/><path d="M720.542,427.694H471.931a4,4,0,0,1-3.978-4.422c.507-4.79,1.205-9.529,2.074-14.086a4,4,0,0,1,3.93-3.251H721.343a4,4,0,0,1,4,4,136.3,136.3,0,0,1-.823,14.186A4,4,0,0,1,720.542,427.694Zm-244.106-8H716.905c.164-1.979.283-3.912.356-5.759H477.3Q476.822,416.779,476.436,419.694Z" fill="#340600"/><path d="M467.417,476.808a4,4,0,0,1-3.839-5.13l13.875-47.137a4,4,0,1,1,7.674,2.258l-13.875,47.138A4,4,0,0,1,467.417,476.808Z" fill="#340600"/><path d="M493.583,476.808a4,4,0,0,1-3.839-5.13l13.875-47.137a4,4,0,1,1,7.674,2.258l-13.875,47.138A4,4,0,0,1,493.583,476.808Z" fill="#340600"/><path d="M519.749,476.808a4,4,0,0,1-3.839-5.13l13.875-47.137a4,4,0,1,1,7.674,2.258l-13.875,47.138A4,4,0,0,1,519.749,476.808Z" fill="#340600"/><path d="M545.915,476.808a4,4,0,0,1-3.839-5.13l13.875-47.137a4,4,0,1,1,7.674,2.258L549.75,473.937A4,4,0,0,1,545.915,476.808Z" fill="#340600"/><path d="M572.08,476.808a4,4,0,0,1-3.839-5.13l13.875-47.137a4,4,0,1,1,7.674,2.258l-13.875,47.138A4,4,0,0,1,572.08,476.808Z" fill="#340600"/><path d="M598.246,476.808a4,4,0,0,1-3.839-5.13l13.875-47.137a4,4,0,1,1,7.674,2.258l-13.875,47.138A4,4,0,0,1,598.246,476.808Z" fill="#340600"/><path d="M624.412,476.808a4,4,0,0,1-3.839-5.13l13.875-47.137a4,4,0,1,1,7.674,2.258l-13.875,47.138A4,4,0,0,1,624.412,476.808Z" fill="#340600"/><path d="M650.578,476.808a4,4,0,0,1-3.839-5.13l13.875-47.137a4,4,0,1,1,7.674,2.258l-13.875,47.138A4,4,0,0,1,650.578,476.808Z" fill="#340600"/><path d="M676.744,476.808a4,4,0,0,1-3.839-5.13l13.875-47.137a4,4,0,1,1,7.674,2.258l-13.875,47.138A4,4,0,0,1,676.744,476.808Z" fill="#340600"/><path d="M608.274,425.67q-.3-9.955-.957-19.9a15.441,15.441,0,0,0-15.447-14.354h-186.3a32.366,32.366,0,0,0-31.224,23.4,98.409,98.409,0,0,0-2.406,10.853Z" fill="#47a942"/><path d="M409.046,405.809c54.17,0,132.126,0,186.3,0a15.486,15.486,0,0,1,12.266,6.014c-.1-1.683-.177-3.368-.291-5.051a15.441,15.441,0,0,0-15.447-14.354h-186.3a32.366,32.366,0,0,0-31.224,23.4,98.409,98.409,0,0,0-2.406,10.853h6.712A32.416,32.416,0,0,1,409.046,405.809Z" fill="#81c347"/><path d="M607.317,406.772a15.441,15.441,0,0,0-15.447-14.354h-186.3a32.366,32.366,0,0,0-31.224,23.4,98.409,98.409,0,0,0-2.406,10.853h.184c.288-1.2.592-2.392.928-3.582a32.366,32.366,0,0,1,31.224-23.4h186.3a15.47,15.47,0,0,1,14.232,9.367,15.578,15.578,0,0,1,2.8,2.768C607.511,410.14,607.431,408.455,607.317,406.772Z" fill="#cadb2a"/><path d="M608.273,429.67H371.944A4,4,0,0,1,368,425.022a102.862,102.862,0,0,1,2.5-11.293,36.472,36.472,0,0,1,35.073-26.311h186.3A19.5,19.5,0,0,1,611.308,405.5c.435,6.425.759,13.171.963,20.05a4,4,0,0,1-4,4.119Zm-231.5-8H604.138c-.2-5.35-.471-10.59-.813-15.628a11.473,11.473,0,0,0-11.455-10.624h-186.3A28.443,28.443,0,0,0,378.2,415.905C377.668,417.786,377.19,419.713,376.771,421.67Z" fill="#340600"/><path d="M607.317,476.969q.734-10.834,1-21.687l-5.394-3.446-14.888,9.514-14.892-9.514-14.888,9.514-14.892-9.514-14.894,9.514-14.893-9.514-14.892,9.514-14.895-9.514-14.9,9.514L454,451.836l-14.895,9.514-14.9-9.514-14.892,9.514-14.895-9.514-14.9,9.514-7.676-4.9a98.357,98.357,0,0,0,2.5,11.476,32.366,32.366,0,0,0,31.224,23.4h186.3A15.441,15.441,0,0,0,607.317,476.969Z" fill="#47a942"/><path d="M607.456,454.731q-.255,5.7-.636,11.405a15.441,15.441,0,0,1-15.447,14.354h-186.3A32.364,32.364,0,0,1,374.119,457.9l-2.273-1.451a98.563,98.563,0,0,0,2.5,11.476,32.366,32.366,0,0,0,31.224,23.4h186.3a15.441,15.441,0,0,0,15.447-14.355q.734-10.834,1-21.687Z" fill="#26863f"/><path d="M591.87,495.324h-186.3A36.473,36.473,0,0,1,370.5,469.012,103.072,103.072,0,0,1,367.9,457.07,4,4,0,0,1,374,453.077l5.522,3.527,12.748-8.14a4,4,0,0,1,4.306,0l12.741,8.14,12.738-8.139a4,4,0,0,1,4.307,0L439.1,456.6l12.743-8.14a4,4,0,0,1,4.307,0L468.9,456.6l12.743-8.14a4,4,0,0,1,4.306,0l12.742,8.14,12.739-8.139a4,4,0,0,1,4.306,0l12.74,8.139,12.741-8.14a4,4,0,0,1,4.307,0l12.739,8.139,12.733-8.139a4,4,0,0,1,4.308,0l12.738,8.139,12.734-8.139a4,4,0,0,1,4.307,0l5.395,3.447a4,4,0,0,1,1.845,3.476c-.2,7.57-.541,14.922-1.01,21.852h0A19.5,19.5,0,0,1,591.87,495.324ZM377.675,464.9q.252.976.524,1.937a28.444,28.444,0,0,0,27.375,20.488h186.3A11.473,11.473,0,0,0,603.325,476.7h0c.416-6.131.73-12.6.932-19.265l-1.332-.85-12.734,8.138a4,4,0,0,1-4.307,0l-12.738-8.138-12.734,8.138a4,4,0,0,1-4.308,0l-12.739-8.139-12.741,8.14a4,4,0,0,1-4.307,0l-12.739-8.139-12.739,8.139a4,4,0,0,1-4.307,0l-12.741-8.14-12.743,8.14a4,4,0,0,1-4.307,0L454,456.582l-12.742,8.14a4,4,0,0,1-4.307,0l-12.742-8.14-12.738,8.139a4,4,0,0,1-4.307,0l-12.742-8.14-12.747,8.14A4,4,0,0,1,377.675,464.9Z" fill="#340600"/><circle cx="479.904" cy="442.202" r="25.769" fill="#cc0"/><path d="M479.9,471.972a29.77,29.77,0,1,1,29.77-29.769A29.8,29.8,0,0,1,479.9,471.972Zm0-51.539a21.77,21.77,0,1,0,21.77,21.77A21.794,21.794,0,0,0,479.9,420.433Z" fill="#340600"/><rect x="608.478" y="464.688" width="18.734" height="17.888" transform="translate(1091.476 -144.214) rotate(90)" fill="#245b34"/><path d="M626.789,487H608.9a4,4,0,0,1-4-4V464.265a4,4,0,0,1,4-4h17.888a4,4,0,0,1,4,4V483A4,4,0,0,1,626.789,487ZM612.9,479h9.888V468.265H612.9Z" fill="#340600"/><rect x="608.478" y="406.448" width="18.734" height="17.888" transform="translate(1033.237 -202.453) rotate(90)" fill="#245b34"/><path d="M626.789,428.759H608.9a4,4,0,0,1-4-4V406.025a4,4,0,0,1,4-4h17.888a4,4,0,0,1,4,4v18.734A4,4,0,0,1,626.789,428.759Zm-13.888-8h9.888V410.025H612.9Z" fill="#340600"/><path d="M455.119,451.74a4,4,0,0,1-2.1-7.407l40.648-25.015a4,4,0,0,1,4.193,6.813l-40.648,25.015A3.973,3.973,0,0,1,455.119,451.74Z" fill="#340600"/><path d="M464.994,465.747a4,4,0,0,1-2.1-7.408l40.648-25.015a4,4,0,0,1,4.193,6.813l-40.648,25.016A3.983,3.983,0,0,1,464.994,465.747Z" fill="#340600"/><rect x="376.066" y="269.963" width="533.793" height="84.885" rx="16.702" stroke-width="8" stroke="#cb0000" stroke-linecap="round" stroke-linejoin="round" fill="#cb0000"/><rect x="363.695" y="257.108" width="533.793" height="84.885" rx="16.702" fill="#ff9e03"/><path d="M880.787,345.994H380.4a20.726,20.726,0,0,1-20.7-20.7V273.81a20.726,20.726,0,0,1,20.7-20.7h500.39a20.725,20.725,0,0,1,20.7,20.7v51.482A20.725,20.725,0,0,1,880.787,345.994ZM380.4,261.108a12.716,12.716,0,0,0-12.7,12.7v51.482a12.716,12.716,0,0,0,12.7,12.7h500.39a12.715,12.715,0,0,0,12.7-12.7V273.81a12.715,12.715,0,0,0-12.7-12.7Z" fill="#340600"/><path d="M863.277,305.673H391.907a5,5,0,1,1,0-10h471.37a5,5,0,0,1,0,10Z" fill="#340600"/><rect x="861.037" y="257.108" width="3" height="17.076" fill="#340600"/><rect x="814.647" y="257.108" width="3" height="17.076" fill="#340600"/><rect x="826.847" y="257.108" width="3" height="8.916" fill="#340600"/><rect x="849.182" y="257.108" width="3" height="8.916" fill="#340600"/><rect x="838.014" y="257.108" width="3" height="12.395" fill="#340600"/><rect x="768.259" y="257.108" width="3" height="17.076" fill="#340600"/><rect x="780.457" y="257.108" width="3" height="8.916" fill="#340600"/><rect x="802.793" y="257.108" width="3" height="8.916" fill="#340600"/><rect x="791.625" y="257.108" width="3" height="12.395" fill="#340600"/><rect x="721.87" y="257.108" width="3" height="17.076" fill="#340600"/><rect x="734.068" y="257.108" width="3" height="8.916" fill="#340600"/><rect x="756.404" y="257.108" width="3" height="8.916" fill="#340600"/><rect x="745.236" y="257.108" width="3" height="12.395" fill="#340600"/><rect x="675.48" y="257.108" width="3" height="17.076" fill="#340600"/><rect x="687.68" y="257.108" width="3" height="8.916" fill="#340600"/><rect x="710.015" y="257.108" width="3" height="8.916" fill="#340600"/><rect x="698.847" y="257.108" width="3" height="12.395" fill="#340600"/><rect x="629.092" y="257.108" width="3" height="17.076" fill="#340600"/><rect x="641.29" y="257.108" width="3" height="8.916" fill="#340600"/><rect x="663.626" y="257.108" width="3" height="8.916" fill="#340600"/><rect x="652.458" y="257.108" width="3" height="12.395" fill="#340600"/><rect x="582.703" y="257.108" width="3" height="17.076" fill="#340600"/><rect x="594.901" y="257.108" width="3" height="8.916" fill="#340600"/><rect x="617.237" y="257.108" width="3" height="8.916" fill="#340600"/><rect x="606.069" y="257.108" width="3" height="12.395" fill="#340600"/><rect x="536.313" y="257.108" width="3" height="17.076" fill="#340600"/><rect x="548.513" y="257.108" width="3" height="8.916" fill="#340600"/><rect x="570.848" y="257.108" width="3" height="8.916" fill="#340600"/><rect x="559.681" y="257.108" width="3" height="12.395" fill="#340600"/><rect x="489.925" y="257.108" width="3" height="17.076" fill="#340600"/><rect x="502.124" y="257.108" width="3" height="8.916" fill="#340600"/><rect x="524.459" y="257.108" width="3" height="8.916" fill="#340600"/><rect x="513.291" y="257.108" width="3" height="12.395" fill="#340600"/><rect x="443.536" y="257.108" width="3" height="17.076" fill="#340600"/><rect x="455.734" y="257.108" width="3" height="8.916" fill="#340600"/><rect x="478.07" y="257.108" width="3" height="8.916" fill="#340600"/><rect x="466.902" y="257.108" width="3" height="12.395" fill="#340600"/><rect x="397.147" y="257.108" width="3" height="17.076" fill="#340600"/><rect x="409.346" y="257.108" width="3" height="8.916" fill="#340600"/><rect x="431.681" y="257.108" width="3" height="8.916" fill="#340600"/><rect x="420.513" y="257.108" width="3" height="12.395" fill="#340600"/><path d="M900.534,466.431,548.683,710.639a6,6,0,0,0,3.325,10.994H905.859a4,4,0,0,0,4-4V471.425A6,6,0,0,0,900.534,466.431ZM696.416,671.8l163.611-118.34V671.8Z" fill="#cb0000" stroke="#cb0000" stroke-linecap="round" stroke-linejoin="round" stroke-width="8"/><path d="M889.534,454.431,537.683,698.639a6,6,0,0,0,3.325,10.994H894.859a4,4,0,0,0,4-4V459.425A6,6,0,0,0,889.534,454.431ZM685.416,659.8l163.611-118.34V659.8Z" fill="#ff9e03"/><path d="M894.859,713.633H541.008a10,10,0,0,1-5.541-18.324L887.254,451.145c.02-.015.042-.03.063-.044a10,10,0,0,1,15.542,8.324V705.633A8.009,8.009,0,0,1,894.859,713.633Zm-3.083-255.889L539.964,701.925a1.94,1.94,0,0,0-.871,2.286,1.909,1.909,0,0,0,1.915,1.422H894.859V459.425a2,2,0,0,0-3.083-1.681ZM849.027,663.8H685.415a4,4,0,0,1-2.345-7.241L846.684,538.22a4,4,0,0,1,6.343,3.241V659.8A4,4,0,0,1,849.027,663.8Zm-151.256-8H845.027V549.291Z" fill="#340600"/><rect x="876.277" y="692.883" width="3" height="16.565" fill="#340600"/><rect x="831.277" y="692.883" width="3" height="16.565" fill="#340600"/><rect x="843.11" y="700.8" width="3" height="8.648" fill="#340600"/><rect x="864.777" y="700.8" width="3" height="8.648" fill="#340600"/><rect x="853.943" y="697.425" width="3" height="12.023" fill="#340600"/><rect x="786.277" y="692.883" width="3" height="16.565" fill="#340600"/><rect x="798.11" y="700.8" width="3" height="8.648" fill="#340600"/><rect x="819.777" y="700.8" width="3" height="8.648" fill="#340600"/><rect x="808.943" y="697.425" width="3" height="12.023" fill="#340600"/><rect x="741.277" y="692.883" width="3" height="16.565" fill="#340600"/><rect x="753.11" y="700.8" width="3" height="8.648" fill="#340600"/><rect x="774.777" y="700.8" width="3" height="8.648" fill="#340600"/><rect x="763.943" y="697.425" width="3" height="12.023" fill="#340600"/><rect x="696.277" y="692.883" width="3" height="16.565" fill="#340600"/><rect x="708.11" y="700.8" width="3" height="8.648" fill="#340600"/><rect x="729.777" y="700.8" width="3" height="8.648" fill="#340600"/><rect x="718.943" y="697.425" width="3" height="12.023" fill="#340600"/><rect x="651.277" y="692.883" width="3" height="16.565" fill="#340600"/><rect x="663.11" y="700.8" width="3" height="8.648" fill="#340600"/><rect x="684.777" y="700.8" width="3" height="8.648" fill="#340600"/><rect x="673.943" y="697.425" width="3" height="12.023" fill="#340600"/><rect x="606.277" y="692.883" width="3" height="16.565" fill="#340600"/><rect x="618.11" y="700.8" width="3" height="8.648" fill="#340600"/><rect x="639.777" y="700.8" width="3" height="8.648" fill="#340600"/><rect x="628.943" y="697.425" width="3" height="12.023" fill="#340600"/><rect x="561.277" y="692.883" width="3" height="16.565" fill="#340600"/><rect x="573.11" y="700.8" width="3" height="8.648" fill="#340600"/><rect x="594.777" y="700.8" width="3" height="8.648" fill="#340600"/><rect x="583.943" y="697.425" width="3" height="12.023" fill="#340600"/><rect x="881.399" y="507.659" width="16.565" height="3" fill="#340600"/><rect x="889.316" y="495.826" width="8.648" height="3" fill="#340600"/><rect x="889.316" y="474.159" width="8.648" height="3" fill="#340600"/><rect x="885.941" y="484.993" width="12.023" height="3" fill="#340600"/><rect x="881.399" y="552.659" width="16.565" height="3" fill="#340600"/><rect x="889.316" y="540.826" width="8.648" height="3" fill="#340600"/><rect x="889.316" y="519.159" width="8.648" height="3" fill="#340600"/><rect x="885.941" y="529.992" width="12.023" height="3" fill="#340600"/><rect x="881.399" y="597.659" width="16.565" height="3" fill="#340600"/><rect x="889.316" y="585.826" width="8.648" height="3" fill="#340600"/><rect x="889.316" y="564.159" width="8.648" height="3" fill="#340600"/><rect x="885.941" y="574.992" width="12.023" height="3" fill="#340600"/><rect x="881.399" y="642.659" width="16.565" height="3" fill="#340600"/><rect x="889.316" y="630.826" width="8.648" height="3" fill="#340600"/><rect x="889.316" y="609.159" width="8.648" height="3" fill="#340600"/><rect x="885.941" y="619.992" width="12.023" height="3" fill="#340600"/><rect x="881.399" y="687.659" width="16.565" height="3" fill="#340600"/><rect x="889.316" y="675.826" width="8.648" height="3" fill="#340600"/><rect x="889.316" y="654.159" width="8.648" height="3" fill="#340600"/><rect x="885.941" y="664.992" width="12.023" height="3" fill="#340600"/><rect x="383.558" y="559.428" width="162.571" height="76.984" rx="10.699" stroke-width="8" stroke="#cb0000" stroke-linecap="round" stroke-linejoin="round" fill="#cb0000"/><rect x="403.63" y="551.992" width="105.687" height="90.667" rx="5.495" stroke-width="8" stroke="#cb0000" stroke-linecap="round" stroke-linejoin="round" fill="#cb0000"/><rect x="374.558" y="549.428" width="162.571" height="76.984" rx="10.699" fill="#fff"/><rect x="384.872" y="549.428" width="125.445" height="76.984" rx="10.699" fill="#bfbfbf"/><path d="M526.431,630.411H385.257a14.715,14.715,0,0,1-14.7-14.7V560.126a14.714,14.714,0,0,1,14.7-14.7H526.431a14.715,14.715,0,0,1,14.7,14.7v55.587A14.715,14.715,0,0,1,526.431,630.411ZM385.257,553.428a6.705,6.705,0,0,0-6.7,6.7v55.587a6.705,6.705,0,0,0,6.7,6.7H526.431a6.706,6.706,0,0,0,6.7-6.7V560.126a6.706,6.706,0,0,0-6.7-6.7Z" fill="#340600"/><rect x="394.63" y="541.992" width="105.687" height="90.667" rx="5.495" fill="#06a0ff"/><rect x="394.63" y="620.333" width="105.687" height="12.326" rx="5.495" fill="#06a0ff" opacity="0.27" style="mix-blend-mode:multiply"/><rect x="394.63" y="543.265" width="105.687" height="12.326" rx="5.495" fill="#06a0ff" opacity="0.38" style="mix-blend-mode:screen"/><path d="M494.821,636.659h-94.7a9.507,9.507,0,0,1-9.5-9.5V547.487a9.507,9.507,0,0,1,9.5-9.5h94.7a9.506,9.506,0,0,1,9.495,9.5v79.677A9.506,9.506,0,0,1,494.821,636.659Zm-94.7-90.667a1.5,1.5,0,0,0-1.5,1.5v79.677a1.5,1.5,0,0,0,1.5,1.5h94.7a1.5,1.5,0,0,0,1.495-1.5V547.487a1.5,1.5,0,0,0-1.495-1.5Z" fill="#340600"/><g opacity="0.58"><path d="M470.985,574.333H416a4,4,0,0,1,0-8h54.985a4,4,0,0,1,0,8Z" fill="#340600"/></g><g opacity="0.58"><path d="M439,591.919H416a4,4,0,0,1,0-8h23a4,4,0,0,1,0,8Z" fill="#340600"/></g></g></g></svg>